<svg preserveAspectRatio="none" overflow="visible" style="display: block;" width="2779.42" height="2775.06" viewBox="0 0 2779.42 2775.06" fill="none" xmlns="http://www.w3.org/2000/svg">
<g id="Vector 97" filter="url(#filter0_f_0_163)">
<path d="M296.583 1095.9C299.277 1096.96 293.401 1102.62 294.674 1104.76C267.087 1104.47 286.805 1092.06 296.583 1095.9ZM2302.16 1240.45C2295.37 1240.65 2288.57 1240.38 2281.77 1239.75C2277.32 1241.12 2282.57 1244.24 2275.46 1226.93C2274.25 1223.94 2254.94 1232.66 2253.75 1225.45C2253.13 1221.49 2259.5 1218.99 2266.3 1215.78C2268 1214.96 2269.72 1214.08 2271.36 1213.04C2272.97 1211.59 2274.49 1209.75 2275.8 1207.5C2278.4 1202.87 2280.24 1196.88 2279.84 1184.45C2279.71 1180.92 2279.38 1176.33 2278.74 1170.07C2277.88 1162.42 2277.97 1161.07 2274.15 1134.75C2270.09 1110.62 2266.73 1080.85 2246.51 1008.95C2243.85 999.78 2240.81 989.799 2237.22 978.783C2235.43 973.274 2233.5 967.505 2231.4 961.44C2230.35 958.407 2229.25 955.302 2228.11 952.115C2227.54 950.523 2226.96 948.908 2226.37 947.277C2226.22 946.867 2226.07 946.46 2225.92 946.048C2225.85 945.844 2225.77 945.637 2225.69 945.43C2225.49 944.857 2225.21 944.091 2224.96 943.416C2223.94 940.65 2222.89 937.829 2221.81 934.948C2170.12 853.894 2181.26 655.872 1725.67 399.714C1496.41 279.854 1130.24 288.826 927.538 390.59C877.268 412.221 822.092 443.954 797.31 460.09C774.559 474.571 753.808 489.107 734.823 503.402C696.855 532.019 665.853 559.619 639.659 585.274C536.715 688.594 499.583 757.611 470.341 808.136C417.419 906.753 406.827 951.904 402.3 962.882C396.144 981.505 392.135 995.496 389.03 1006.95C385.95 1018.38 383.836 1027.2 382.206 1034.44C380.715 1041.17 380.184 1044.34 379.475 1048.29C376.918 1063.1 377.036 1067.96 377.723 1069.72C380.894 1075.4 392.473 1040.82 401.449 1007.38C405.56 991.936 411.315 971.055 420.957 942.438C426.678 925.617 433.995 905.334 444.528 880.115C449.821 867.47 455.963 853.513 463.442 837.808C471.571 820.706 484.732 794.72 500.784 767.31C517.177 739.348 537.737 706.959 566.979 668.654C574.302 659.083 582.193 649.142 590.757 638.829C595.037 633.674 599.49 628.422 604.126 623.079C606.446 620.405 608.8 617.721 611.228 614.985C614.803 610.96 618.489 606.879 622.283 602.753C652.669 569.776 690.182 533.295 739.205 495.108C835.283 420.03 989.233 331.885 1192 303.198C1400.05 270.457 1631.05 324.822 1777.68 406.96C1852.81 447.23 1911.78 491.335 1958.65 532.519C1992.07 562.157 2010.22 580.867 2031.2 603.42C2070.95 646.692 2099.4 684.989 2121.99 718.474C2144.51 751.993 2161.09 780.861 2174.57 806.242C2182.3 820.939 2184.63 825.696 2188.33 833.134C2191.77 840.094 2194.97 846.77 2197.97 853.189C2221.35 903.297 2235.29 943.892 2242.78 966.1C2249.57 986.261 2254.67 1003.09 2258.94 1017.96C2261.06 1025.32 2263.04 1032.51 2264.69 1038.62C2266.02 1043.39 2267.27 1047.95 2268.44 1052.33C2270.79 1061.08 2272.85 1069.11 2274.7 1076.64C2287.81 1130.01 2290.97 1150.78 2288.44 1173.62C2262.36 1128.64 2249.15 1181.54 2258.61 1189.03C2260.75 1190.49 2310.93 1187.66 2301.87 1221.56C2295.98 1242.74 2223.12 1231.26 2261.66 1258.58C2309.13 1229.8 2308.09 1255.51 2311.1 1271.06C2311.65 1273.72 2306.21 1298.59 2309.09 1307.14C2310.12 1310.34 2336.61 1313.34 2337.64 1317.78C2338.33 1320.83 2324.24 1324.27 2325.32 1328.86C2328.36 1341.22 2330.49 1354.01 2330.67 1367.54C2329.89 1362.28 2328.46 1356.83 2326.19 1351.26C2260.23 1367.29 2296.95 1347.1 2293.54 1346.29C2275.02 1344.87 2271.74 1362.19 2259.65 1356.85C2260.76 1347.73 2261.5 1337.72 2261.66 1326.51C2271.44 1334.51 2315.16 1303.77 2292.38 1303C2351.8 1292.84 2226.68 1253.32 2240.13 1236.21C2242.9 1232.08 2277.53 1239.17 2249.49 1204.73C2246.29 1200.92 2230.45 1209.53 2231.04 1206.64C2231.5 1205.13 2280.11 1173.79 2246.85 1176.92C2234.48 1178.22 2212.19 1216.3 2201.51 1161.77C2265.85 1156.97 2186.34 1070.9 2154.27 1057.73C2163.56 1057.01 2172.88 1056.41 2182.22 1055.95C2150.14 1048.12 2162.46 1032.57 2157.57 1028.17C2138.57 1011.57 2098.46 997.254 2078.67 976.216C2054.23 950.896 2078.6 923.448 2029.73 902.979C2044.6 904.304 2058.56 905.268 2072.75 906.737C2045.73 886.772 2013.87 865.051 1972.07 841.507C2031.99 937.657 1955.92 832.438 1940.94 824.668C1927.72 815.391 1938.59 843.559 1916.11 828.642C1913.34 826.99 1928.02 812.719 1883.83 789.309C1834 764.069 1800.87 758.354 1778.63 756.491C1755.34 754.699 1747.5 757.764 1706.88 747.606C1703.13 746.669 1708.92 743.692 1697.7 736.358C1683.96 729.611 1666.63 715.456 1557.83 704.145C352.88 948.578 1698.81 624.924 1585.64 721.537C1601.74 724.57 1552.7 738.227 1568.86 754.359C1579.48 769.973 1688.42 789.205 1805.85 822.226C1722.01 799.674 1691.4 827.45 1680.4 824.991C1674.13 824.329 1623.53 809.37 1537.67 803.363C1493.09 800.319 1439.59 801.044 1389.62 806.669C1337.12 812.354 1293.73 822.738 1285.75 824.42C1213.12 839.592 1157.13 860.445 1135.26 866.385C1111.68 873.299 1113.61 868.424 1125.14 859.212C1148.28 840.236 1207.73 812.005 1171.98 823.295C1154.53 832.163 1031.97 864.618 867.589 1019.63C756.863 1131.5 727.553 1196.68 700.929 1230.25C675.566 1265.55 658.52 1278.21 635.083 1279.21C649.755 1315.53 664.459 1314.68 680.915 1295.35C685.227 1290.19 689.916 1283.43 695.517 1274.64C701.802 1264.47 709.223 1251.89 719.037 1235.92C742.768 1202.15 759.088 1154.38 880.981 1033.53C910.914 1005.15 942.447 979.289 974.564 956.348C1009.13 937.362 963.413 966.34 888.477 1041.32C737.334 1208.55 737.252 1274.32 728.768 1280.41C708.809 1320.97 702.791 1330.33 694.692 1336.59C687.056 1342.31 679.799 1341.94 672.198 1339.69C657.022 1335.17 641.266 1321.49 623.685 1324.69C605.099 1328.44 627.986 1361.94 595.357 1325.6C589.066 1339.72 588.132 1345.14 588.705 1348.95C589.348 1352.63 591.825 1354.08 594.828 1354.71C600.828 1355.98 609.209 1353.29 610.576 1355.03C612.546 1357.69 609.649 1361.05 606.568 1363.56C603.511 1365.99 600.263 1367.54 600.882 1368.32C602.754 1370.51 618.513 1369.66 621.789 1376.94C622.277 1377.96 595.118 1379.75 586.864 1364.58C585.859 1380.84 565.949 1371.68 607.391 1386.48C525.805 1370.08 654.085 1401.97 658.34 1404.1C669.759 1409 606.627 1392.65 603.496 1392.06C593.508 1390 593.724 1391.29 595.654 1391.28C597.556 1391.4 601.087 1390.49 596.645 1388.78C642.368 1399.61 596.398 1392.28 605.431 1393.64C634.889 1400.82 628.546 1397.9 685.99 1411.45C670.321 1407.25 654.665 1402.98 639.02 1398.64C676.531 1404.68 692.014 1411.5 679.807 1402.12C647.942 1394.49 683.917 1407.74 658.913 1401.27C644.203 1397.66 641.793 1393.28 633.996 1391.54C624.591 1389.59 635.053 1395.22 620.7 1391.64C589.562 1384.87 622.283 1376.01 637.111 1390.65C637.176 1387.58 699.776 1398.02 681.011 1390.95C668.801 1386.47 580.582 1381.42 599.664 1367.04C629.179 1372.2 606.995 1375.91 609.221 1376.37C612.427 1377.28 679.062 1388.72 682.39 1389.08C693.312 1390.64 661.496 1363.53 695.826 1364.16C656.994 1359.51 692.004 1345.27 680.654 1340.83C677.51 1339.7 653.535 1337.98 651.142 1336.93C636.918 1330.61 680.856 1326.63 682.795 1321.49C684.964 1315.86 664.437 1313.31 664.526 1313C666.075 1310.59 679.588 1314.85 679.8 1313.26C680.106 1310.95 685.551 1294.52 682.784 1293.21C681.92 1292.83 658.163 1292 654.292 1287.67C653.617 1286.94 681.245 1291.53 670.947 1278.69C658.555 1263.22 635.136 1282.76 606.976 1272.86C649.531 1270.56 608.571 1264.74 612.129 1262.91C612.99 1262.48 629.186 1261.94 639.473 1259.64L632.946 1315.89C638.002 1314.27 641.574 1312.28 641.036 1309.87C643.343 1312.31 645.649 1314.74 647.953 1317.17L654.376 1261.83C657.166 1264.89 659.947 1268 662.719 1271.15C665.744 1269.46 666.19 1266.52 666.399 1263.59L660.06 1318.21C660.127 1314.23 659.838 1310.18 663.882 1308.22C667.43 1306.5 696.08 1310.58 695.669 1306.14C695.424 1305.18 625.594 1295.65 656.106 1309.69C630.986 1308.48 647.751 1304.44 640.877 1301.33C639.805 1300.86 598.089 1295.87 624.359 1294.84C630.819 1294.59 752.192 1313.16 665.633 1284.07C662.842 1283.14 647.355 1284.33 644.242 1283.39C642.134 1282.74 648.769 1277.7 646.649 1276.91C644.372 1276.1 627.465 1277.42 624.241 1276.41C607.625 1271.24 674.232 1271.54 668.55 1279.04C676.946 1277.05 685.341 1275.07 693.736 1273.06C643.613 1271.91 680.031 1267.77 678.785 1263.97C670.81 1239.68 637.115 1252.91 620.639 1247.56C594.178 1238.97 679.201 1250.55 654.282 1238.9C651.948 1237.83 614.81 1246.7 636.996 1225.51C638.155 1228.98 639.314 1232.44 640.469 1235.91C688.894 1237.65 638.08 1223.52 637.46 1222.68C631.501 1213.22 648.46 1220.55 624.576 1205.43C622.431 1204.08 634.538 1202.36 628.779 1199.38C605.057 1187.05 612.904 1212.19 593.302 1211.39C583.707 1211.01 588.031 1184.98 592.636 1184.41C613.076 1182.02 600.662 1196.94 625.908 1195.76C634.893 1195.29 619.284 1156.5 629.525 1149.54C641.455 1141.6 707.21 1142.04 633.621 1137.07C706.025 1139.4 656.884 1133.92 657.455 1132.84C665.035 1119.71 665.761 1119.78 659.591 1107.66C658.251 1104.99 680.311 1104.21 676.667 1103.07C674.464 1102.4 650.941 1101.9 643.865 1098.87C634.192 1094.69 659.661 1074.52 672.725 1073.69C685.793 1072.89 677.793 1083.17 699.236 1082.56C701.865 1074.95 697.048 1067 699.758 1059.32C700.948 1056.13 715.777 1058.68 716.157 1057.29C716.377 1056.7 703.894 1044.58 698.357 1044.75C685.499 1045.16 692.029 1080.48 666.451 1069.74C661.511 1067.67 696.283 1063.48 654.394 1061.98C665.73 1031.5 676.938 1001 688.032 970.268C718.415 989.727 689.329 1008.6 691.211 1027.39C691.428 1030 686.897 1038.46 708.102 1038.61C714.497 1022.9 704.567 1002.5 719.159 987.858C719.642 987.388 738.548 990.203 741.657 988.515C747.463 985.331 717.391 972.624 725.415 971.094C727.279 970.856 751.999 978.588 768.021 977.453C809.139 974.512 718.711 968.596 720 964.385C721.037 961.196 765.901 941.055 738.513 934.17C709.328 926.888 720.613 949.682 696.595 946.863C673.116 930.793 699.698 916.702 697.32 902.449C697.254 902.2 678.273 903.484 675.772 900.243C671.42 894.574 698.274 894.268 702.678 891.79C707.369 889.094 703.97 878.823 713.797 877.824C715.085 877.703 741.568 880.928 742.301 881.279C753.057 886.288 718.505 886.257 718.044 886.66C716.67 888.109 729.814 890.177 728.966 891.529C727.553 893.757 715.277 894.474 714.062 897.466C713.178 899.533 736.736 898.554 735.572 900.538C735.049 901.278 681.11 906.691 735.77 909.954C753.045 911.067 777.996 846.832 764.393 839.894C757.601 845.104 750.795 850.572 743.997 855.728C760.47 845.089 717.265 830.026 781.98 831.46C787.455 798.611 792.78 765.164 797.711 735.088L797.634 738.767C798.86 730.147 800.08 721.435 801.295 712.664C806.942 704.951 848.457 709.924 836.568 696.809C823.264 699.968 809.96 703.029 796.655 706.167C806.064 699.773 824.694 670.542 816.186 665.589C815.072 664.944 777.447 663.513 774.326 656.05C771.571 649.431 799.787 648.792 805.242 645.341C809.743 642.464 802.404 639.013 803.974 638.15C805.231 637.488 822.479 637.48 825.51 635.905C834.883 630.914 786.267 634.367 842.098 630.071C844.205 631.35 846.312 632.625 848.418 633.898C856.58 627.784 882.015 619.714 894.371 629.019C896.504 630.617 879.84 629.022 879.852 630.2C882.271 676.112 915.251 639.984 889.576 623.504C914.357 619.736 899.595 596.284 904.476 595.569C911.548 594.59 931.249 598.86 948.381 593.868C952.009 592.845 938.598 561.475 971.298 573.152C978.044 575.551 970.715 590.424 971.633 594.013C1024.15 586.28 949.354 565.356 951.308 563.151C959.597 554.244 996.479 581.104 1002.85 560.863C1007.73 545.285 972.545 559.487 957.693 553.273C949.36 549.777 988.142 532.584 938.224 532.394C932.976 526.235 959.356 530.153 961.267 529.427C962.948 528.711 948.167 516.544 958.739 512.804C960.054 512.35 985.977 514.181 988.106 513.722C991.753 512.822 986.721 501.202 984.529 500.705C983.006 500.39 960.256 502.843 954.763 501.636C948.429 500.227 953.922 489.185 947.437 488.479C937.632 487.488 943.916 501.295 918.548 498.673C925.027 492.435 908.218 481.895 887.826 477.437C893.659 478.542 894.417 484.695 892.328 486.793C855.142 485.304 855.824 472.117 885.206 477.017C869.433 473.944 861.018 475.788 846.117 473.977C842.343 473.505 841.618 469.422 835.188 468.551C833.906 468.432 819.815 472.448 812.27 471.507C798.638 469.802 801.873 457.493 805.468 456.525C815.657 453.813 827.805 464.054 843.484 465.099C845.892 465.252 876.754 457.092 879.471 456.996C908.614 456.883 887.49 466.139 913.739 465.396C919.312 463.114 924.885 460.829 930.457 458.543C956.903 467.99 943.019 484.628 973.179 489.356C964.366 475.771 965.616 461.675 1033.67 462.606C1062.33 462.997 1079.05 469.034 1086.34 468.905C1112.42 468.396 1084.21 459.944 1085.59 459.663C1087.18 459.438 1088.73 459.346 1090.23 459.366C1090.23 459.366 1090.23 459.366 1090.24 459.366C1105.5 459.574 1116.34 471.224 1123.3 471.897C1135.67 473.03 1186.71 468.581 1197.98 468.74C1200.24 468.945 1212.2 477.308 1231.9 474.802C1251.81 472.262 1252.35 465.099 1254.41 464.873C1266.32 463.661 1276.99 476.354 1284.01 476.823C1287.56 477.069 1309.45 470.612 1315.72 470.503C1322.02 470.416 1335.67 475.724 1355.5 478.006C1370.23 479.707 1381.6 475.474 1383.9 476.275C1385.43 476.847 1385.02 488.701 1387.61 489.318C1391.43 490.237 1409.1 487.695 1413.5 488.158C1419.83 488.816 1413.42 492.558 1419.95 492.146C1424.81 491.84 1485.79 477.799 1502.02 478.11C1529.71 478.65 1465.79 493.518 1575.25 480.345C1575.97 480.252 1568.25 476.586 1568.92 476.495C1589.06 474.564 1619.83 486.393 1614.61 472.361C1649.18 498.795 1656.19 476.146 1702.76 480.606C1720.66 482.329 1727.92 492.495 1730.61 492.58C1753.35 491.904 1735.76 488.455 1746.93 487.515C1753.16 486.994 1777.08 496.331 1792.71 494.509C1800.77 493.567 1798.04 483.963 1799.61 483.59C1814.46 480.001 1830.34 484.855 1840.86 484.163C1847.91 483.704 1848.55 477.935 1849.82 477.805C1852.46 477.593 1880.83 485.815 1890.82 487.578C1898.5 488.92 1910.63 484.424 1913.98 485.334C1933.98 490.81 1882.63 501.248 1954.52 491.492C1958.93 490.896 1957.21 486.831 1958.09 486.722C1978.46 484.494 1980.12 491.958 1996.75 493.519C2025.41 496.19 2009.56 485.263 2029.62 494.442C2048.47 488.009 2047.74 484.27 2042.61 476.39C2056.91 498.225 2131.09 506.861 2129.54 482.794C2128.28 490.429 2170.21 490.135 2170.91 492.425C2171.3 493.847 2129.48 504.388 2223.06 500.545C2234.75 500.064 2220 493.123 2243.88 495.553C2237.57 511.647 2259.09 496.101 2262.25 496.124C2317.34 497.058 2271.69 536.008 2277.88 542.909C2285.06 550.909 2328.37 558.515 2328.4 560.241C2328.34 565.894 2306.37 560.905 2298.25 562.059C2290.2 563.213 2332.2 579.899 2329.87 580.675C2320.52 583.665 2294.45 580.144 2293.12 580.45C2277.07 584.08 2297.22 606.013 2291.06 612.002C2308 612.066 2309.52 599.875 2336.62 607.879C2368.23 617.168 2293.53 616.652 2290.24 616.831C2290.38 657.468 2290.49 698.229 2290.48 739.762C2330.23 739.858 2300.71 712.362 2305.95 711.819C2336.99 708.678 2335.65 754.465 2321.5 759.984C2330.16 755.862 2338.82 751.664 2347.48 747.531C2375.29 752.477 2363.9 760.156 2355.34 767.864C2354.86 768.358 2355.75 770.814 2355.27 771.306C2349.77 776.506 2345.42 782.15 2353.16 786.768C2359.6 790.592 2377.41 784.074 2378.61 784.131C2396.25 788.814 2382.4 795.113 2358.72 789.485C2381.26 800.34 2356.13 798.226 2354.02 805.838C2353.93 806.242 2372.45 803.411 2379.92 809.807C2383.39 813.025 2383 827.914 2399.04 830.61C2405.8 831.735 2477.51 826.031 2416.03 823.212C2446.51 807.668 2388.16 817.121 2389.77 810.66C2390.12 809.653 2424.4 813 2408.69 796.033C2470.52 801.057 2423.68 818.688 2431.08 821.962C2446.3 829.106 2479.08 802.615 2430.95 795.98C2479.2 799.724 2437.52 794.091 2439.66 788.019C2441.99 781.122 2456.31 784.472 2456.48 780.694C2456.72 776.602 2451.49 774.729 2447.02 773.44C2447.56 772.888 2446.56 770.133 2447.1 769.578C2440.27 767.791 2435.2 767.293 2453.85 762.958C2358.51 768.702 2441.53 749.632 2466.56 744.11C2470.68 752.743 2474.79 761.416 2478.89 770.172C2478.33 770.747 2479.37 773.606 2478.81 774.179C2479.35 775.449 2479.89 776.726 2480.42 778.013C2485.44 777.515 2490.45 777.018 2495.47 776.521C2494.69 779.337 2493.91 782.193 2493.13 785.089C2488.35 784.502 2483.57 783.917 2478.79 783.335C2509.57 798.815 2474.46 801.448 2474.04 802.596C2469.56 817.531 2469.34 834.5 2468.72 849.431C2468.63 851.639 2499.84 851.039 2474.89 866.484C2466.95 871.26 2442.89 865.622 2446.32 871.497C2511.9 881.102 2459.39 879.122 2459.23 881.286C2459.01 887.422 2475.18 891.747 2475.33 892.338C2477.58 900.185 2474.44 910.956 2476.52 919.548C2476.77 919.709 2497.16 916.153 2490.96 921.356C2488.75 923.105 2401.74 936.593 2429.24 952.466C2435.23 948.849 2441.23 945.257 2447.21 941.692C2438.89 945.813 2459.26 978.438 2482.7 971.725C2497.04 967.56 2441.9 953.653 2495.46 954.612C2479.03 964.483 2500.28 1023.8 2487.6 1027.72C2485.8 1028.26 2468.63 1023.59 2466.37 1024.34C2464.64 1024.9 2468.11 1038.37 2461.35 1039.84C2457.34 1040.7 2446.99 1034.27 2440.71 1034.45C2436.24 1034.68 2427.98 1050.81 2449.68 1052.86C2441.16 1048.35 2449.35 1037.37 2467.39 1044.27C2469.62 1045.14 2455.39 1048.41 2458.24 1049.49C2484.45 1059.54 2479.36 1033.18 2479.77 1029.17C2506.68 1047.04 2472.74 1070.47 2489.78 1090.49C2471.26 1097.15 2462.69 1077.63 2447.23 1085.51C2415.18 1101.7 2472.01 1091.62 2474.28 1092.29C2492.31 1097.71 2393.6 1107.56 2468.09 1111.69C2456.52 1117.54 2447.25 1114.9 2456.48 1124.61C2461.71 1123.7 2466.93 1122.78 2472.16 1121.86C2514.74 1134.57 2404.64 1149.84 2396.43 1147.72C2374.47 1142.08 2409.77 1132.97 2408.99 1131.96C2407.83 1130.46 2332.48 1122.23 2400.92 1110.64C2350.58 1101.51 2365.34 1133.15 2331.57 1117.22C2336.72 1127.1 2299.18 1163.63 2321.07 1170.61C2323.93 1171.45 2374.62 1171.41 2348.33 1179.45C2335.82 1183.25 2335.9 1172.26 2324.27 1173.63C2288.65 1177.82 2305.63 1266.34 2306.25 1283.17C2306.23 1284.24 2290.59 1282.76 2290.66 1283.83C2290.88 1287.08 2313.4 1300.66 2305.77 1305.94C2335.62 1295.94 2336.21 1319.54 2332.57 1325.34C2327.05 1334.08 2299.53 1331.47 2293.38 1334.95C2269.69 1348.32 2333.3 1376.8 2271.23 1383.78C2331.96 1387.91 2239.87 1401.78 2238.57 1411.19C2237.53 1418.58 2276.77 1432.8 2302.05 1424.68C2298.73 1435.67 2305.83 1448.01 2309.53 1459.27C2302.83 1465.32 2311.39 1498.41 2304.34 1504.05C2304.81 1505.91 2305.2 1507.77 2305.45 1509.58C2305.75 1511.77 2288.38 1506.25 2289.46 1510.07C2289.68 1510.43 2307.06 1513.51 2308.42 1516.83C2319.82 1544.54 2284.6 1526.58 2272.99 1529.69C2266.48 1531.45 2263.15 1532.96 2261.93 1534.24C2260.84 1519.49 2256.8 1502.31 2256.6 1497.04C2263.2 1491.77 2255.18 1460.82 2261.46 1455.16C2261.43 1454.94 2261.42 1454.74 2261.41 1454.56C2259.79 1454.58 2258.3 1454.65 2256.95 1454.77C2250.72 1460.4 2258.68 1491.15 2252.12 1496.38C2220.92 1497.31 2258.68 1530.31 2247.48 1536.97C2247.05 1537.21 2225.99 1532.93 2225.8 1533.2C2225.8 1533.21 2225.79 1533.21 2225.79 1533.22C2223.69 1536.18 2228.35 1557.67 2254.29 1557.47C2261.22 1557.42 2262.69 1547.97 2262.09 1536.5C2266.38 1540.22 2290.49 1541.63 2291.43 1542.31C2302.18 1550.65 2276.52 1562.88 2272.48 1568.1C2271.59 1569.29 2286.82 1571.62 2286.82 1571.84C2282.54 1576.49 2239.44 1567.38 2283.38 1579.89C2227.74 1580.59 2278.15 1561 2242.66 1557.39C2215.48 1554.34 2220.18 1616.66 2262.59 1624.31C2258 1623.75 2252.21 1623.64 2245.47 1624.3C2230.54 1625.7 2231.92 1644.05 2239.18 1648.59C2240.63 1649.39 2281.94 1656.57 2282.2 1657.29C2282.87 1659.12 2246.48 1675.49 2269.12 1688.95C2275.79 1685.31 2282.44 1681.74 2289.07 1678.18C2284.14 1706.49 2297.07 1704.86 2311.28 1697.43C2311.48 1696.97 2313.13 1696.8 2313.39 1696.37C2323.92 1690.57 2334.41 1682.92 2337.69 1683.35C2350.41 1684.48 2347.58 1736.37 2311.25 1719.19C2306.36 1716.68 2327.83 1696.83 2298.38 1702.98C2293.23 1704.02 2298.05 1720.56 2294.85 1720.9C2273.95 1721.92 2253.75 1684.43 2224.54 1683.15C2250.13 1695.82 2233.96 1703.04 2239.05 1713.73C2241.34 1718.57 2261.71 1723.84 2262 1724.45C2265.73 1733.53 2245.06 1724.62 2245.05 1727.42C2245.17 1728.79 2287.55 1755.03 2224.97 1738.4C2258.42 1806.75 2268.63 1762.49 2271.69 1729.44C2292.69 1744.35 2276.99 1763.18 2279.83 1775.18C2280.89 1779.4 2302.48 1781.82 2305.13 1789.49C2311.15 1803.15 2269.3 1872.76 2240.84 1930.94C2243.63 1900.86 2218.67 1901.03 2212.52 1922.46C2204.55 1947.89 2241.85 1938.22 2243.13 1944.3C2243.09 1947.67 2236.89 1962.06 2218.16 1998.34C2192.42 2037.67 2189.69 2084.59 2041.23 2238.26C1901.57 2368.07 1791.03 2398.99 1748.97 2416.44C1852.51 2380.74 1961.83 2312 2037.9 2234.8C2106.85 2163.36 2125.2 2125.72 2134.86 2108.42C2144.78 2089.11 2146.25 2081.2 2143.39 2080.88C2131.36 2084.19 2133.87 2097.8 2017.76 2213.89C1924.05 2304.02 1791.96 2371.25 1682.62 2397.42C1766.21 2368.79 1872.82 2318.6 1973.85 2222.17C1870.01 2318.65 1720.67 2376.55 1622.36 2389.89C1515.86 2406.11 1444.83 2396.13 1389.92 2385.81C1284.07 2363.22 1238.51 2334.28 1214.56 2331.42C1206.86 2330.24 1224.94 2358.48 1220.79 2357.86C1167.33 2348.74 1085.38 2279.33 1080.89 2283.1C1073.7 2285.48 1103.34 2322.26 1085.06 2320.92C1080.26 2320.22 1058.83 2276.41 1027.87 2261.98C1016.18 2256.53 1011.41 2276.06 1008.16 2275.04C981.345 2266.14 1011.5 2250.33 973.966 2226.36C947.549 2209.05 909.449 2216.11 888.644 2180.66C960.966 2302.9 884.329 2211.72 840.828 2180.55C834.127 2175.73 811.996 2203 792.688 2154.62C907.565 2193.85 796.737 2111.43 784.885 2091.23C784.282 2090.04 801.627 2076.07 795.159 2066.53C794.569 2065.73 783.161 2075.77 775.832 2067.43C709.507 1988.15 760.528 2033.42 762.442 2009.43C763.173 1999.17 721.543 1970.36 715.483 1959.64C714.125 1957.22 728.479 1950.92 722.999 1941.86C713.248 1925.75 691.096 1918.33 684.728 1907.89C684.095 1906.63 706.249 1896.11 689.789 1878.96C685.268 1874.29 674.434 1871.35 671.451 1882.3C662.107 1919.95 724.22 1953.98 723.474 1997.98C722.14 2038.64 666.947 1945.31 665.895 1940.5C664.912 1938.71 684.925 1951.37 678.021 1932.02C672.435 1916.27 620.203 1904.96 619.246 1878.05C619.039 1875.86 645.335 1844.13 647.766 1844.45C649.284 1844.36 667.884 1869.11 675.904 1860.96C676.783 1860.06 669.479 1842.85 675.919 1837.81C683.626 1831.5 767.826 1790.96 768.863 1787.09C771.145 1776.81 753.283 1789.67 752.645 1783.74C750.715 1770.25 764.32 1723.49 733.213 1731.63C733.424 1738.78 733.709 1745.95 734.071 1753.12C719.071 1717.44 711.098 1737.07 703.633 1733.66C695.696 1729.99 723.296 1723.37 722.401 1710.65C721.821 1707.62 703.442 1659.68 692.302 1663.16C717.307 1686.29 680.902 1684.47 680.57 1685.92C679.608 1691.47 700.196 1692.52 701.643 1699.41C711.856 1747.3 668.577 1708.22 664.016 1721.47C662.54 1726.2 680.947 1729.38 680.605 1731.24C679.516 1737.38 658.482 1743.8 661.29 1746.94C667.839 1754.26 694.577 1735.24 696.358 1735.51C717.044 1737.02 703.795 1774.42 665.46 1766.12C657.632 1781.51 697.113 1769.71 684.595 1783.93C660.189 1812.83 658.502 1782.82 651.007 1777.05C623.703 1755.83 636.286 1743.58 621.3 1707.98C616.095 1695.51 592.962 1684.37 590.489 1678.31C588.645 1673.86 649.823 1625.91 542.745 1644.96C550.241 1628.06 617.567 1595.68 612.395 1582.88C607.677 1571.24 570.122 1580.53 568.476 1579.58C565.893 1578.16 566.943 1563.08 560.954 1558.75C553.862 1553.66 539.601 1558.37 532.56 1549.56C515.197 1527.57 554.596 1524.8 556.881 1522.2C583.947 1493.1 529.292 1509.36 524.309 1503.66C523.434 1502.63 523.293 1498.81 523.574 1493.19C525.793 1484.46 536.346 1466.52 524.638 1463.35C532.664 1465.04 540.656 1466.31 548.669 1467.87C572.853 1462.37 532.651 1461.23 576.492 1457.78C505.63 1462.28 552.334 1450.64 550.325 1448.54C549.501 1447.7 537.445 1448.73 536.837 1447.66C534.395 1443.66 543.183 1433.1 536.875 1431.39C509.74 1424 468.064 1452.56 465.546 1454.74C466.029 1450.62 448.33 1430.14 415.163 1442.96C410.043 1444.89 441.942 1445.07 443.26 1445.91C451.906 1451.22 423.143 1448.88 420.486 1449.61C416.188 1450.67 443.93 1452.22 440.746 1453.54C439.727 1453.99 413.847 1453.76 413.764 1459.57C388.633 1458.68 407.621 1441.22 401.613 1440.03C399.47 1439.64 346.61 1448.02 397.264 1432.08C392.339 1432.67 387.414 1433.26 382.488 1433.85C379.843 1427.34 377.332 1422.74 374.913 1419.34C386.305 1418.43 409.352 1418.16 404.231 1416.06C401.288 1415.05 376.098 1418.78 375.35 1418.73C373.586 1418.69 372.631 1417.2 372.353 1416.88C372.159 1416.96 372.357 1417.32 374.82 1430.19C376.355 1437.95 377.825 1446.63 383.556 1471.96C385.918 1482.04 390.814 1503.28 399.515 1532.32C401.743 1539.73 404.054 1547.16 407.098 1556.41C411.258 1569.06 416.203 1583.25 422.429 1599.51C428.668 1615.77 436.17 1634.1 445.831 1655.22C450.667 1665.78 456.052 1677.04 462.163 1689.12C471.502 1707.59 483.941 1730.61 499.018 1755.34C529.693 1805.01 571.758 1867.24 646.956 1941.72C710.441 2016.41 1019.25 2244.81 1370.24 2218.25C1718.31 2198.66 1922.77 2024.63 2019.5 1926.77C2031.75 1914.26 2045.77 1898.86 2052.88 1890.73C2060.12 1882.5 2066.9 1874.5 2073.3 1866.74C2086.07 1851.22 2097.28 1836.65 2107.31 1822.94C2127.33 1795.53 2142.72 1771.61 2155.47 1750.42C2207.58 1660.48 2213.22 1637.15 2226.65 1605.53C2238 1576.2 2243.19 1559.78 2247.48 1546.39C2255.94 1519.34 2259.16 1506.37 2261.73 1496.81C2264.22 1487.34 2265.54 1482.14 2266.53 1478.62C2267.86 1473.85 2270.39 1469.01 2272.61 1468.41C2274.75 1468.11 2277.14 1470.08 2276.24 1486.37C2275.93 1490.79 2275.36 1496.22 2274.37 1503.11C2273.88 1506.55 2273.28 1510.36 2272.53 1514.61C2271.5 1519.99 2269.98 1527.11 2268.13 1535.04C2264.31 1551.14 2259.09 1571.75 2248.81 1602.9C2247.51 1606.8 2246.12 1610.89 2244.63 1615.17C2242.57 1621.02 2238.56 1631.88 2234.71 1641.7C2226.67 1662.15 2216.45 1686.66 2200.68 1718.56C2164.12 1781.8 2132.63 1878.4 1939.43 2044.96C1918.6 2079.8 1489.84 2361.41 1073.45 2235.84C665.84 2119.21 536.882 1888.21 468.528 1787.68C403.137 1678.93 379.562 1595.02 379.73 1598.42C373.933 1581.89 369.398 1567.69 365.589 1555.09C350.735 1505.2 345.469 1478.3 341.136 1457.61C333.29 1417.86 331.793 1404.42 330.755 1397.51C327.871 1376.49 326.219 1358.18 325.264 1342.58C325.027 1338.69 324.836 1334.98 324.682 1331.45C324.569 1328.59 324.536 1326.75 324.492 1324.47C324.415 1320.09 324.412 1315.93 324.467 1311.99C324.647 1294.55 325.938 1288.25 327.094 1279.41C328.287 1271.16 329.569 1267.03 330.322 1262.19C330.701 1259.96 330.956 1257.84 331.026 1256.37C331.098 1255.06 330.982 1254.02 330.616 1253.33C328.737 1249.87 307.491 1253.33 308.466 1250.21C309.404 1247.31 329.983 1250.17 330.837 1249.31C332.6 1247.69 332.395 1243.03 331.34 1237.62C330.287 1232.78 328.378 1226.59 326.709 1219.79C324.973 1241.68 323.715 1242.08 323.882 1243.53C324.085 1244.29 325.914 1242.71 330.947 1241.72C326.623 1242.53 349.982 1250.83 367.32 1219.79C372.466 1222.54 377.105 1224.14 380.383 1223.99C381.328 1223.92 385.362 1222.01 388.512 1219.79C391.985 1226.6 394.468 1230.84 390.491 1232.19C408.376 1236.96 354.383 1242.88 365 1241.96C366.198 1241.7 396.614 1241.31 402.043 1239.3C403.895 1238.56 380.1 1237.16 406.374 1231.49C393.492 1228.26 429.768 1181.62 396.879 1180.35C395.155 1180.4 384.406 1187.6 370.721 1184.28C352.525 1179.8 412.769 1180.64 417.42 1173.36C418.143 1172.4 410.615 1153.46 406.856 1153.1C372.822 1149.81 360.506 1167.77 356.581 1167.82C346.705 1167.96 339.686 1154.45 341.953 1153.64C344.322 1152.9 389.718 1161.06 371.764 1148.41C366.571 1150.43 361.378 1152.44 356.183 1154.45C345.319 1148.69 376.053 1145.67 377.81 1143.93C383.377 1138.52 336.196 1136.79 393.305 1124.18C408.461 1120.83 425.761 1123.02 428.038 1122.57C448.46 1118.36 393.021 1119.49 433.864 1112.31C436.91 1111.76 462.294 1118.85 461.082 1103.01C457.225 1104.42 453.367 1105.83 449.509 1107.23C440.523 1105.73 433.983 1090.06 435.885 1087.7C441.451 1080.86 470.226 1084.08 466.318 1077.97C427.844 1085.26 421.173 1066.19 454.675 1064.56C412.487 1065.28 443.473 1045.98 443.805 1038.02C443.995 1033.11 424.816 1024.36 426.831 1022.69C429.295 1020.58 457.964 1018.72 464.037 1014.65C465.765 1013.45 443.912 1004.95 472.752 993.239C478.31 990.998 526.545 983.223 538.952 985.401C560.185 989.129 522.001 1003.33 550.667 1000.66C581.349 998.001 561.858 984.985 565.54 980.884C582.516 961.251 616.031 968.913 625.874 967.552C649.78 964.439 648.168 954.415 650.296 953.896C659.733 951.367 679.323 956.709 693.979 955.598C713.052 954.025 746.653 941.63 753.265 943.229C762.646 945.391 734.741 956.897 736.146 957.18C755.251 962.656 798.486 949.348 819.875 944.545C826.46 943.123 837.694 945.57 839.586 944.698C868.303 931.508 777.477 947.704 782.999 940.29C787.921 933.694 817.547 939.085 819.122 938.704C820.858 938.336 821.783 930.619 831.926 928.577C837.012 927.626 894.98 942.093 920.165 939.209C914.052 933.281 907.985 927.904 901.872 921.993C934.742 918.608 911.299 929.847 914.759 930.322C921.725 931.546 937.95 925.071 948.377 924.407C955.006 923.933 979.136 927.815 988.414 921.645C991.618 919.501 968.178 917.316 991.178 908.571C1023.36 929.969 1040.42 911.683 1052.02 909.943C1063.62 908.238 1092.06 917.387 1086.01 903.896C1150.02 897.803 1106.28 902.393 1117.88 905.392C1132.13 909.033 1152.28 896.201 1137.78 915.085C1167.69 911.54 1164.34 897.417 1166.68 896.57C1168.79 895.746 1183.81 897.563 1188.71 896.03C1245.52 877.712 1219.84 889.132 1256.52 882.067C1259.8 881.458 1272.43 867.709 1278.65 876.839C1289.95 893.431 1248.07 904.357 1339.2 899.545C1377.57 883.314 1317.56 872.609 1316.22 868.717C1314.27 862.824 1333.33 867.436 1338.47 866.262C1340.11 865.778 1338.16 861.003 1339.62 860.744C1408.6 850.954 1342.75 883.548 1355.53 891.06C1365.73 888.079 1375.89 884.65 1386.08 881.529C1386.76 884.601 1387.45 887.712 1388.12 890.646C1407.73 874.311 1395.97 889.455 1452.4 888.272C1465.08 888.007 1442.63 880.206 1478.62 888.246C1486 879.287 1497.72 881.258 1481.25 875.051C1503.78 873.481 1530.56 887.692 1542.66 893.162C1565.95 867.894 1484.6 888.384 1526.53 864.618C1498.37 863.462 1504.58 872.183 1499.93 871.883C1483.16 870.612 1508.83 861.66 1450.26 859.025C1440.64 858.548 1411.84 866.553 1412.56 858.313C1412.69 857.459 1437.27 850.289 1439.08 850.139C1458.74 849.266 1451.82 854.73 1460.01 854.245C1467.77 853.746 1462.65 848.766 1464.78 848.426C1489.32 846.223 1474.56 852.279 1482.18 850.911C1498.77 847.984 1549.86 823.435 1536.63 850.882C1507.01 831.482 1509.29 850.338 1520.68 857.966C1523.54 859.899 1538.25 859.171 1543.61 861.989C1550.53 865.203 1543.9 870.568 1546.78 872.514C1549.93 874.434 1583.5 858.894 1574.72 877.939C1608.41 865.858 1570.23 852.406 1593.65 841.288C1640.99 818.905 1654.13 848.712 1659.18 851.869C1660.54 852.668 1680.07 847.914 1681.34 848.417C1683.28 849.235 1675.65 867.7 1692.19 868.083C1708.71 868.417 1690.87 861.622 1707.9 859.685C1719.35 858.116 1741.6 878.144 1748.45 865.729C1753.13 857.05 1705.7 846.713 1755.11 839.638C1760.22 850.928 1765.38 862.731 1770.49 873.995C1788.83 865.97 1807.14 857.654 1825.49 849.77C1832.62 862.523 1812.27 875.719 1840.41 886.244C1898.33 850.539 1889.56 891.98 1896.96 891.807C1901.37 891.513 1949.5 875.514 1958.31 872.663C1978.12 881.646 1990.12 913.559 2049.17 889.317C2035.76 893.892 2070.3 899.59 2072.84 899.203C2099.56 895.89 2080.62 878.98 2105.09 879.965C2133.47 880.992 2095.76 889.046 2099.26 894.211C2117.43 920.277 2256.75 901.101 2236.9 930.789C2241.84 929.821 2246.78 928.853 2251.72 927.886C2246.29 958.948 2240.82 990.249 2235.3 1022.62C2279.01 1031.64 2307.56 1063.77 2304.06 1082.6C2303.4 1086.41 2282.14 1106.35 2278.3 1108.37C2270.93 1111.57 2267.09 1096.74 2253.38 1104.42C2250.57 1105.59 2243.16 1140.67 2266.99 1137.82C2269.52 1132.88 2256.77 1121.33 2262.28 1118.86C2274.7 1113.76 2280.67 1120.87 2283.5 1134.3C2284.95 1141.85 2285.58 1150.08 2285.91 1162.5C2286.16 1174.67 2286.33 1188.54 2285.94 1219.96C2284.81 1231.86 2284.23 1237.96 2290.26 1238.25C2298.04 1237.46 2305.83 1236.54 2313.61 1235.51C2309.8 1238.19 2305.99 1240.61 2302.16 1240.45ZM365.87 1108.91C341.654 1108.12 359.118 1099.79 352.049 1096.25C342.159 1091.4 248.978 1089.39 341.921 1085.91C349.912 1093.61 357.897 1101.29 365.87 1108.91ZM338.506 1223.63C351.133 1218.54 403.137 1218.52 381.829 1223.35C379.408 1223.92 321.497 1230.34 338.506 1223.63ZM359.444 1170.87C360.147 1171.05 359.114 1175.63 358.313 1175.84C337.837 1181.4 341.069 1167.59 359.444 1170.87ZM421.346 1423.78C418.782 1420.56 372.063 1427.51 391.601 1427.89C392.842 1427.92 421.479 1424.01 421.346 1423.78ZM422.354 1421.23C464.144 1414.5 378.49 1418.6 387.442 1421.36C388.353 1421.7 420.308 1421.44 422.354 1421.23ZM357.996 1206.07C374.188 1205.51 366.727 1210.96 362.994 1213.16C348.245 1214.14 359.951 1208.08 357.996 1206.07ZM2245.26 1479.6C2242.04 1479.38 2241.62 1470.92 2241.27 1465.66C2240.84 1460.68 2241.05 1457.01 2238.06 1472.54C2237.1 1477.31 2235.79 1483.89 2233.6 1493.86C2231.77 1501.95 2227.8 1520.97 2216.86 1557.29C2208 1581.76 2215.19 1577.12 2168.77 1681.32C2143.38 1730.34 2116.95 1797.71 2006.06 1920.84C1977.37 1951.5 1941.98 1985.66 1895.32 2021.99C1871.98 2040.13 1845.8 2058.74 1816.14 2077.26C1767.93 2107.48 1702.96 2141.36 1628.68 2167.28C1323.34 2301.43 840.801 2150.82 690.211 1983.07C516.41 1821.49 480.518 1714.66 446.921 1645.05C439.527 1627.71 432.879 1610.4 428.5 1598.34C426.916 1594.02 425.417 1589.83 423.993 1585.77C421.147 1577.66 418.599 1570.06 416.282 1562.89C407.057 1534.24 401.266 1512.27 396.741 1493.84C387.896 1457.26 383.971 1434.3 380.848 1415.92C379.334 1406.82 378.148 1399.07 377.138 1392.21C377.075 1391.78 377.013 1391.36 376.951 1390.94C376.915 1390.69 376.903 1390.62 376.883 1390.5C376.865 1390.39 376.847 1390.28 376.829 1390.17C376.756 1389.73 376.684 1389.3 376.612 1388.87C376.47 1388 376.33 1387.16 376.193 1386.33C375.92 1384.67 375.657 1383.08 375.404 1381.54C374.392 1375.4 373.526 1370.18 372.736 1365.59C371.164 1356.44 369.884 1349.76 368.675 1344.47C366.291 1334.18 364.116 1328.21 361.961 1327.38C363.075 1330.99 364.113 1339.36 365.592 1353.09C366.355 1360.12 367.245 1368.8 368.639 1380.72C369.604 1386.61 372.179 1420.37 385.496 1481.78C389.101 1498.01 393.694 1517.15 400.725 1541.49C404.257 1553.67 408.42 1567.19 413.616 1582.52C414.916 1586.35 416.283 1590.3 417.723 1594.37C418.444 1596.41 419.183 1598.48 419.942 1600.58C420.037 1600.84 420.132 1601.1 420.228 1601.37C420.276 1601.5 420.323 1601.63 420.372 1601.76C420.378 1601.78 420.38 1601.79 420.393 1601.82C420.413 1601.88 420.431 1601.93 420.452 1601.98C420.493 1602.1 420.532 1602.2 420.573 1602.32C420.653 1602.54 420.731 1602.75 420.814 1602.98C421.455 1604.74 422.115 1606.53 422.787 1608.34C424.132 1611.95 425.537 1615.66 427.007 1619.47C438.855 1649.95 454.333 1686.5 479.711 1733.17C533.443 1820.59 611.465 1982.66 897.138 2132.49C1182.79 2299.04 1664.39 2212.39 1826.15 2081.94C2048.64 1931.68 2095.03 1823.59 2139.39 1757.69C2178.41 1690.09 2193.59 1650.68 2205.88 1619.99C2212.72 1602.22 2213.8 1598.87 2216.21 1592.17C2218.37 1586.07 2220.29 1580.46 2222.03 1575.25C2228.96 1554.46 2233.24 1539.73 2236.6 1527.83C2243.63 1502.4 2244.84 1496.94 2247.06 1488.28C2248.95 1480.81 2250.35 1475.05 2251.07 1472.4C2257.07 1449.78 2250.94 1481 2245.26 1479.6ZM412.192 1414.77C414.347 1414.36 411.834 1420.3 400.769 1422.18C385.607 1420.5 402.151 1414.85 412.192 1414.77ZM415.83 1465.15C418.67 1465.31 489.574 1455.12 443.503 1469.63C436.757 1471.76 417.7 1467.42 415.188 1468.21C410.291 1469.76 408.037 1470.88 407.679 1471.67C401.384 1466.99 398.226 1462.38 402.511 1461.58C422.75 1457.75 414.643 1465.05 415.83 1465.15ZM474.706 1534.83C486.575 1536.91 482.722 1559.44 478.628 1565.19C477.843 1566.19 446.932 1565.95 450.474 1575.93C453.395 1583.88 482.947 1567.8 480.024 1584.14C477.197 1600.72 452.131 1582.44 450.746 1583.96C448.858 1586.12 466.386 1609.3 448.3 1611.39C434.742 1612.55 439.938 1584.02 436.34 1577.75C431.619 1569.6 410.521 1582.84 413.595 1567.69C415.547 1558.18 455.489 1558.84 457.26 1556.71C458.578 1554.71 432.939 1527.07 474.586 1534.89C474.626 1534.87 474.666 1534.85 474.706 1534.83ZM409.529 1472.93C408.165 1472.64 407.421 1472.24 407.679 1471.67C408.25 1472.09 408.907 1472.51 409.529 1472.93ZM384.465 1123.4C372.516 1127.22 356.23 1120.02 371.921 1115.52C384.78 1114.43 386.325 1122.81 384.465 1123.4ZM442.014 1474.85C432.647 1482.72 418.646 1478.35 409.529 1472.93C417.111 1474.34 445.143 1472.24 442.014 1474.85ZM390.491 1232.19C387.525 1231.56 382.912 1231.14 375.346 1231.2C383.654 1233.04 388.101 1232.99 390.491 1232.19ZM376.914 1239.44C388.459 1244.51 393.976 1241.73 394.549 1238.05C395.125 1234.88 390.761 1230.56 382.515 1230.62C376.288 1230.77 375.993 1238.8 376.914 1239.44ZM419.575 1428.98C421.783 1428.37 491.69 1428.5 438.811 1423.9C431.099 1429.5 423.072 1425.07 417.016 1425.78C399.583 1427.44 417.126 1434.33 409.74 1436.84C441.084 1435.46 412.322 1431.21 419.576 1428.99C419.575 1428.98 419.575 1428.98 419.575 1428.98ZM526.174 1847.44C506.672 1847.46 505.796 1826.68 502.784 1813.53C522.174 1813.98 522.62 1834.25 526.174 1847.44ZM2496.62 926.79C2512.42 955.915 2437.53 956.266 2468.15 931.705C2468.79 931.215 2489.12 924.769 2496.62 926.79ZM2465.17 1167.06C2432.47 1167.73 2427.75 1158.82 2441.53 1153.8C2444.63 1152.68 2477.87 1149.78 2484 1155.66C2444.56 1153.2 2429 1160.78 2465.17 1167.06ZM463.132 1477.35C484.966 1477.85 470.022 1485.72 467.029 1489.69C449.013 1488.65 456.567 1480.85 463.132 1477.35ZM2453.55 1017.65C2450.94 1020.53 2479.17 1023.87 2481.55 1023.48C2492.47 1021.74 2469.84 1015.02 2453.55 1017.65ZM464.901 1456.09C477.824 1454.7 490.964 1462.4 458.988 1465.54C461.157 1463.39 456.788 1456.9 464.901 1456.09ZM527.258 1820.49C531.773 1813.24 552.068 1836.55 549.227 1847.69C535.835 1851.54 524.249 1825.34 527.258 1820.49ZM2460.79 1065.71C2458.19 1068.19 2457.1 1074.73 2468.51 1076.07C2482.77 1077.72 2478.4 1067.8 2460.79 1065.71ZM2450.63 572.474C2455.78 572.224 2492.77 582.377 2483.31 586.522C2465.23 594.414 2446.99 572.75 2450.63 572.474ZM2440.26 988.962C2467.58 981.855 2441.06 989.916 2469.45 990.86C2470.73 985.276 2472.76 971.394 2444.43 979.749C2438.95 981.353 2442.21 986.421 2440.26 988.962ZM2430.41 996.262C2439.55 997.623 2468.25 1004.93 2466.41 999.673C2465.52 997.183 2433.51 991.791 2430.41 996.262ZM2462.42 632.477C2437.18 639.186 2451.13 606.985 2455.54 606.11C2457.87 605.651 2460.07 605.362 2461.93 605.205C2453.98 603.914 2452.63 597.786 2472.79 597.352C2471.1 599.169 2472.8 604.19 2470.56 604.736C2469.61 604.972 2468.71 605.146 2467.8 605.262C2485.27 607.667 2467.21 631.184 2462.42 632.477ZM2435.75 686.062C2398.79 677.33 2461.86 676.857 2463.88 677.586C2489.56 686.86 2443.14 680.362 2440.96 680.596C2437.33 681.171 2458.81 687.808 2435.75 686.036C2435.75 686.045 2435.75 686.053 2435.75 686.062ZM2451.89 643.348C2451.07 643.01 2453.12 636.24 2454.12 635.967C2475.39 630.692 2469.69 649.871 2451.89 643.348ZM535.444 1648.06C532.016 1663.31 506.511 1653.91 512.972 1642.8C513.646 1641.86 538.564 1634.7 535.444 1648.06ZM2436.46 1000.66C2432.04 1001.58 2414.05 1031.28 2449.14 1031.14C2445.14 1028.42 2464.81 994.541 2436.46 1000.66ZM2415.33 1227.55C2415.95 1222.17 2448.56 1230.17 2436.07 1232.27C2431.44 1233.04 2415.2 1228.91 2415.33 1227.55ZM493.943 1442.98C475.502 1440.3 536.273 1436.08 515.77 1441.5C514.967 1441.7 494.664 1443.09 493.943 1442.98ZM2436.99 1185.82C2455.84 1205.55 2351.55 1194.7 2388.31 1172.89C2392.92 1173.93 2397.53 1174.96 2402.14 1176C2419.49 1149.19 2409.64 1174.5 2415.07 1181.71C2417.14 1184.42 2434.73 1183.33 2437.11 1185.81C2437.07 1185.81 2437.03 1185.82 2436.99 1185.82ZM2411.49 1255.69C2336.09 1268.54 2386.69 1237.72 2377.64 1227.4C2407.68 1238.79 2402.23 1250.85 2434.7 1236.13C2439.16 1261.07 2410.27 1248.92 2407.75 1249.73C2404.92 1250.71 2414.72 1255.14 2411.49 1255.69ZM2414.04 1208.59C2411.93 1207.45 2427.53 1200.58 2425.24 1197.63C2450.35 1203.15 2428.33 1216.35 2414.04 1208.59ZM2452.07 743.633C2432.18 742.677 2417.55 740.815 2425.09 735.037C2435.06 737.024 2443.59 740.995 2452.07 743.633ZM469.86 1095.24C470.979 1091.37 477.841 1083.26 457.17 1087.26C455.413 1087.66 458.153 1096.19 469.86 1095.24ZM2415.91 1088.2C2413.43 1088.91 2410.52 1112.04 2432.89 1105.22C2439.65 1103.11 2437.97 1081.97 2415.91 1088.2ZM2424.3 968.135C2424.01 970.055 2427.39 978.256 2432.09 978.589C2448.32 979.914 2439.83 969.648 2424.3 968.135ZM488.615 1074.58C490.632 1073.9 486.032 1062.64 476.513 1064.71C458.511 1068.61 481.667 1076.87 488.615 1074.58ZM591.724 1688.71C593.116 1691.44 573.015 1700.34 573.034 1701.44C572.927 1703.68 595.809 1756.65 563.308 1742.83C556.926 1739.59 548.765 1658.69 550.355 1648.82C578.69 1639.39 557.467 1677.01 562.445 1684.64C563.341 1685.96 587.752 1681.42 591.597 1688.72C591.639 1688.72 591.682 1688.71 591.724 1688.71ZM2431.59 712.376C2412.73 711.226 2400.59 688.808 2423.45 689.416C2426.16 697.049 2428.88 704.696 2431.59 712.376ZM2428.28 723.682C2414.85 728.241 2410.62 717.004 2416.56 713.785C2429.25 713.98 2430.24 722.986 2428.28 723.682ZM2351.85 1008.81C2356.35 1011.36 2384.19 1005.52 2389.46 1007.37C2392.74 1008.55 2382.19 1013.27 2390.71 1015.36C2393.42 1015.97 2419.53 1011.87 2418.48 1010.27C2417.1 1008.02 2396.65 1009.17 2396.62 1006.78C2396.56 998.932 2411.4 992.544 2411.4 985.115C2411.36 984.445 2396.75 988.965 2397.22 983.281C2397.26 982.377 2418.9 978.195 2416.04 971.09C2350.42 953.077 2415.98 944.931 2392.87 924.573C2386.6 925.015 2369.26 938.807 2368.61 939.532C2357.03 955.212 2354.57 983.506 2353.63 1000.24C2353.38 1004.5 2367.5 1003.1 2367.93 1004.96C2368.24 1006.44 2342.35 1003.46 2351.85 1008.81ZM484.35 1096.07C510.093 1092.19 493.196 1087.21 494.204 1083.08C470.97 1086.4 489.77 1091.7 484.35 1096.07ZM2405.59 833.088C2406.53 835.397 2398.47 842.367 2406.27 843.241C2416.45 844.331 2423.23 834.1 2405.59 833.088ZM716.098 2016.63C716.938 2016.74 726.616 2035.08 726.359 2036.11C718.403 2062.88 689.662 2008.07 716.098 2016.63ZM1365.42 2475.57C1444.15 2486.6 1567.98 2475.21 1634.83 2482.95C1577.34 2491.89 1499.04 2497.07 1444.83 2493.16C1393.59 2489.98 1359.6 2481.9 1365.42 2475.57ZM2331.61 1679.79C2304.29 1675.82 2324.56 1664.18 2327.48 1661.87C2339.39 1664.97 2351.32 1682.59 2331.61 1679.79ZM2365.44 743C2367.2 735.665 2325.38 736.514 2344.37 732.187C2347.58 731.474 2434.65 730.506 2401.91 737.996C2396.02 739.352 2375.44 733.308 2365.44 743ZM2389.41 1169.03C2371.31 1166.01 2377.07 1160.34 2378.77 1156.4C2392.26 1158.1 2388.29 1166.05 2389.41 1169.03ZM507.687 1051.91C533.109 1046.6 512.807 1033.27 496.146 1038.39C493.978 1039.11 508.487 1049.76 507.687 1051.91ZM547.29 1486.97C567.942 1491.34 573.368 1478.85 553.333 1476.81C554.745 1478.29 545.929 1486.64 547.29 1486.97ZM2306.23 1732.12C2305.51 1731.5 2309.38 1722.22 2310.44 1722C2332.83 1718.17 2321.95 1744.66 2306.23 1732.12ZM997.069 2285.36C1015.48 2280.14 1102.75 2352.11 1134.1 2383.21C1113.13 2387.12 1061.85 2362.33 1031.6 2337.85C999.307 2312.56 983.658 2288.25 997.069 2285.36ZM2376.65 777.702C2376.4 775.674 2376.87 773.722 2377.9 771.833C2378.4 771.326 2377.48 768.796 2377.97 768.287C2379.89 765.019 2383.77 761.748 2388.54 758.71C2396.87 759.438 2394.87 764.514 2389.67 768.505C2389.17 769.022 2390.1 771.59 2389.59 772.105C2386.01 775.056 2380.92 777.557 2376.65 777.702ZM2311.28 1697.43C2311.48 1696.97 2313.13 1696.8 2313.39 1696.37C2312.71 1696.74 2311.95 1697.08 2311.28 1697.43ZM2362.75 901.984C2357.02 906.295 2382.8 906.373 2383.6 906.12C2392.08 903.011 2369.21 897.119 2362.75 901.984ZM522.101 1088.36C545.163 1085.07 526.631 1079.7 531.824 1075.33C513.615 1077.97 519.413 1085.4 522.101 1088.36ZM2362.68 1271.56C2337.14 1275.5 2309.49 1250.5 2326.02 1246.72C2341.58 1247.42 2366.19 1270.92 2362.68 1271.56ZM580.845 1467.36C598.988 1465.62 576.511 1459.89 568.045 1462.11C562.654 1463.47 569.571 1468.38 580.845 1467.36ZM2337.38 1235.81C2331.98 1233.28 2350.25 1229.41 2361.06 1231.9C2374.93 1235.09 2338.93 1236.47 2337.38 1235.81ZM2334 1041.06C2331.17 1041.83 2349.2 1055.5 2368.03 1051.19C2381.11 1048.19 2354.84 1046.28 2354.81 1045.42C2354.94 1044.5 2388.15 1025.69 2334 1041.06ZM2337.25 1400.4C2330.66 1394.99 2339.23 1389.77 2339.12 1384.66C2350.2 1387.59 2352.34 1399.52 2337.25 1400.4ZM589.372 1515.13C592.247 1513.74 593.587 1500.56 593.157 1488.35C593.28 1481.63 588.973 1476.16 576.188 1486.28C575.86 1486.55 574.955 1487.9 574.249 1489.66C572.843 1502.29 573.716 1522.75 589.372 1515.13ZM2365.44 743C2365.22 743.925 2364.33 744.955 2362.51 746.188C2363.24 744.944 2364.49 743.919 2365.44 743ZM2360.39 834.751C2347.19 832.539 2343.36 841.4 2350.32 844.37C2366.49 845.717 2362.24 835.02 2360.39 834.751ZM2320.71 1382.83C2313.37 1379.34 2321.86 1374.65 2321.25 1370.97C2333.5 1372.52 2333.29 1382.56 2320.71 1382.83ZM2273.35 1641.31C2281.74 1635.93 2279.8 1627.3 2264.95 1624.64C2267.29 1624.9 2269.81 1625.01 2272.38 1624.91C2274.93 1624.79 2269.2 1616.67 2274.78 1614.54C2308.17 1601.11 2280.15 1688.56 2247.28 1629.26C2255.98 1633.25 2264.67 1637.26 2273.35 1641.31ZM928.304 2181.2C930.005 2157.77 885.927 2144.85 887.831 2157.29C888.318 2165.63 926.493 2205.31 928.304 2181.2ZM2211.37 1849.87C2209.4 1850.74 2209.8 1857.77 2211.39 1866.12C2212.94 1874.63 2215.73 1884.11 2220.19 1886.04C2236.15 1870.42 2229.35 1842.63 2211.37 1849.87ZM871.231 2088.16C868.195 2080.17 838.688 2090.63 838.269 2092.17C834.907 2105.42 867.489 2109.45 871.231 2088.16ZM2285.43 756.861C2280.17 758.562 2286.22 763.077 2296.2 766.759C2295.76 767.215 2296.58 769.478 2296.14 769.932C2302.34 772.416 2310.07 774.657 2317.55 775.706C2313.76 776.036 2308.81 777.046 2302.84 778.999C2302.84 778.992 2302.84 778.986 2302.84 778.979C2294.96 782.066 2283.86 862.889 2323.15 809.537C2324.4 807.841 2306.8 809.656 2310.09 802.763C2310.32 802.311 2324.65 802.486 2325.39 801.093C2327 797.952 2336.48 780.351 2325.04 776.325C2327.7 776.358 2330.23 776.186 2332.56 775.746C2338.07 774.703 2337.8 772.87 2334.29 770.819C2334.76 770.34 2333.9 767.953 2334.36 767.472C2324.64 762.211 2290.26 755.236 2285.43 756.861ZM2219.98 1809.13C2213.95 1811.29 2215.68 1824.25 2227.41 1829.24C2235.3 1824.06 2234.12 1803.97 2219.98 1809.13ZM640.839 1508.24C647.977 1501.44 638.241 1489.07 628.764 1485.87C625.651 1485.6 622.513 1485.73 619.958 1486.49C619.87 1486.54 619.784 1486.6 619.698 1486.67C613.548 1491.16 629.778 1518.97 640.839 1508.24ZM2084.32 2116.13C2127.61 2060.94 2141.4 2035 2151.88 2018.44C2162.09 2001.4 2167.95 1990.25 2170.72 1984.81C2176.72 1972.82 2175.64 1972.09 2171.94 1974.82C2168.1 1977.78 2161.6 1983.89 2154.5 1989.47C2147.51 1994.81 2141.47 1996.75 2141.34 1986.71C2133.5 2016.09 2123.69 2052.09 2084.32 2116.13ZM2334.82 663.892C2330.51 667.026 2293.98 662.729 2313.88 659.487C2320.2 658.472 2337.16 662.133 2334.82 663.892ZM2325.44 520.317C2292.96 522.581 2312.2 509.668 2334.38 515.093C2335.13 515.336 2326.67 520.143 2325.44 520.317ZM2310.82 620.143C2332.88 622.602 2335.48 624.065 2329.94 630.071C2323.84 620.973 2304.19 629.038 2310.82 620.143ZM2262.59 1624.31C2263.48 1624.42 2264.14 1624.5 2264.95 1624.64C2264.14 1624.55 2263.38 1624.44 2262.59 1624.31ZM821.316 2032.14C830.957 2013.49 815.671 1992.87 804.18 2009.62C802.864 2010.92 807.665 2036.9 821.316 2032.14ZM2317.55 775.706C2320.91 775.415 2323.07 775.656 2325.04 776.325C2322.54 776.293 2320.18 776.075 2317.55 775.706ZM933.117 2142.44C921.848 2151.35 955.012 2190.73 958.549 2191.21C997.474 2193.52 946.839 2155.99 933.117 2142.44ZM654.711 1431.96C653.225 1431.67 617.524 1437.27 631.734 1437.84C642.761 1438.28 660.365 1433.06 654.711 1431.96ZM2302.11 599.379C2302.18 596.007 2302.23 591.271 2319.36 590.636C2316.7 592.843 2314.67 599.626 2302.11 599.379ZM2301.87 525.156C2321.94 529.391 2321.76 538.44 2318.37 544.174C2291.88 543.928 2308.05 528.962 2301.87 525.156ZM2295.47 747.634C2294.39 747.89 2286.33 756.451 2304.08 755.584C2330.11 754.284 2305.15 745.357 2295.47 747.634ZM636.695 1446.67C649.121 1448.95 685.957 1438.56 656.805 1437.7C641.875 1437.21 634.611 1446.22 636.695 1446.67ZM798.819 1951.76C781.063 1941.79 787.45 1988.71 807.039 1984.54C803.695 1976.53 804.942 1955.11 798.819 1951.76ZM2150.72 1880.98C2114.42 1903.35 2117.61 1922.76 2134.76 1925.15C2151.42 1928.51 2178.54 1920.7 2177.14 1912.14C2177.13 1908.86 2152.57 1879.63 2150.72 1880.98ZM611.049 1005.55C603.466 1004.07 577.314 1014.22 595.06 1013.78C606.163 1013.48 615.881 1006.49 611.049 1005.55ZM2261.93 1534.24C2261.99 1534.99 2262.05 1535.75 2262.09 1536.5C2261.31 1535.82 2261.14 1535.07 2261.93 1534.24ZM800.58 1792.7C743.065 1851.54 795.975 1826.28 796.592 1828.7C798.183 1834.38 785.87 1856.72 794.197 1866.22C780.544 1857.47 766.806 1847.8 753.667 1838.76C751.017 1849.84 772.324 1953.62 786.208 1950.69C802.759 1944.73 781.87 1918.5 783.015 1917.09C784.277 1914.82 824.826 1887.82 825.193 1884.53C824.443 1878.42 792.845 1808.05 800.58 1792.7ZM1658.01 2346.1C1760.69 2325.34 1811.98 2319.07 1870.15 2279.64C1890.34 2264.07 1885.32 2250.47 1949.85 2190.36C1845.9 2282.99 1737.58 2325.38 1658.01 2346.1ZM717.272 1762.79C735.5 1747.13 740.69 1788 739.102 1790.36C727.391 1802.59 702.053 1775.4 717.272 1762.79ZM928.397 2114.12C927.377 2111.55 902.721 2073.16 893.9 2081.57C893.057 2096.17 934.655 2144.76 928.397 2114.12ZM2008.18 2130.94C2110.75 2013.16 2135.54 1971.34 2111.69 1964.03C2111.66 1964.09 2111.64 1964.14 2111.61 1964.19C2094.88 1998.98 2090.67 2030 2008.18 2130.94ZM695.635 1453.46C738.986 1444.14 683.872 1451.43 670.11 1457.45C689.893 1457.54 688.577 1454.93 695.635 1453.46ZM726.794 1431.6C734.569 1429.52 724.546 1413.52 701.597 1418.09C693.412 1419.54 715.052 1427.7 713.461 1428.01C711.138 1428.84 685.274 1428.01 690.745 1432.45C699.406 1431.45 724.205 1432.35 726.794 1431.6ZM723.299 1446.28C756.13 1437.45 694.595 1440.93 694.78 1445.5C694.81 1447.3 718.561 1447.54 723.299 1446.28ZM719.881 1471.43C725.547 1468.71 733.616 1462.08 712.89 1459.65C711.532 1465.06 710.182 1470.7 708.84 1476.57C720.467 1476.42 714.9 1473.8 719.88 1471.42C719.88 1471.42 719.881 1471.43 719.881 1471.43ZM2144.56 481.43C2127.01 486.694 2120.48 473.945 2124.78 473.462C2139.06 472.06 2152.39 479.079 2144.56 481.43ZM1165.18 915.61C1171.99 913.462 1194.73 910.467 1182.48 908.183C1165.91 912.897 1149.37 918.024 1132.79 922.652C1171.62 921.865 1157.68 918.086 1165.18 915.61ZM1305.18 890.583C1306.16 890.976 1365.32 883.258 1326.21 892.891C1299.81 899.54 1271.73 878.699 1297.74 872.655C1310.35 875.917 1297.2 887.133 1305.18 890.583ZM1558.89 829.461C1563.58 828.523 1571.24 836.358 1567.98 837.51C1550.83 844.218 1533.58 832.408 1558.89 829.461ZM1549.85 857.171C1561.03 852.047 1569.26 860.715 1562.83 863.695C1551.81 864.956 1548.23 857.971 1549.85 857.171ZM1280.61 525.595C1240.04 529.416 1327.19 534.483 1309.71 527.539C1308.89 527.208 1282.6 525.435 1280.61 525.595ZM1619.47 832.204C1608.27 837.122 1600.08 828.903 1606.53 826.151C1617.53 824.727 1621.12 831.634 1619.47 832.204ZM1184.07 527.371C1154.85 532.759 1252.7 532.047 1256.65 531.371C1272.26 528.61 1234 517.853 1224.49 515.641C1238.96 531.145 1197.84 524.829 1184.07 527.371ZM1242.46 554.876C1252.82 560.391 1272.97 546.931 1245.73 543.94C1247 546.633 1239.46 553.301 1242.46 554.876ZM1210.64 587.014C1207.09 589.852 1198.59 598.29 1213.96 599.956C1211.21 596.772 1226.46 588.442 1210.64 587.014ZM1164.42 592.9C1143.45 597.103 1204.37 599.033 1186.29 593.596C1185.59 593.385 1165.59 592.751 1164.42 592.9ZM1142.07 617.875C1117.79 620.481 1176.76 624.687 1178.42 619.935C1178.8 618.519 1144.85 617.601 1142.07 617.875ZM1078.73 533.204C1068.27 537.303 1110.46 543.323 1115.22 534.346C1121.64 537.611 1128.05 540.875 1134.47 544.146C1158.32 532.604 1099.69 532.69 1102.16 529.31C1105.67 524.607 1154.03 525.627 1169.2 526.787C1139.62 522.48 1139.37 505.897 1133.86 496.224C1121.31 504.494 1099.57 517.865 1091.58 526.078C1089.27 528.415 1102.5 530.898 1100.99 532.903C1098.49 536.113 1079.43 532.976 1078.73 533.187C1078.73 533.193 1078.73 533.198 1078.73 533.204ZM1140.71 651.014C1113.13 659.269 1172.48 654.671 1161.98 649.634C1161.17 649.415 1141.38 650.812 1140.71 651.014ZM1798.1 806.873C1774.19 818.185 1740.84 813.673 1792.57 833.216C1756.52 826.056 1767.24 834.97 1752.88 834.183C1741.5 833.364 1750.29 826.69 1727.98 832.063C1740.1 828.829 1744.02 822.306 1745.44 816.848C1745.79 815.422 1746.02 814.451 1746.15 813.225C1746.27 811.989 1746.36 811.162 1746.48 810.718C1746.58 810.082 1746.75 810.151 1747.07 811.169C1747.11 811.292 1747.15 811.428 1747.2 811.573C1747.22 811.646 1747.24 811.721 1747.26 811.799C1747.29 811.984 1747.33 812.272 1747.37 812.562C1747.53 813.765 1747.73 815.476 1748 818.594C1748.05 826.034 1751.08 832.37 1747.51 886.064C1748.21 878.246 1748.56 872.481 1748.8 867.677C1746.25 888.508 1752.12 911.692 1722.55 1002.96C1706.07 1047.67 1673.72 1123.52 1588.73 1197.77C1505.15 1273.79 1379.79 1306.25 1327.68 1308.74C1272.64 1312.19 1272.68 1312.76 1328.79 1310.06C1381.86 1308.42 1509.72 1275.57 1594.39 1198.44C1762.4 1032.92 1740.61 943.554 1755 908.326C1761.26 869.517 1761.87 856.105 1763.64 844.877C1765.14 834.356 1766.48 828.824 1767.93 824.509C1770.81 816.239 1773.95 813.22 1777.11 810.835C1790 805.807 1801.95 805.71 1798.1 806.873ZM1055.65 584.899C983.689 586.774 1097.82 589.535 1038.14 594.367C1124.59 603.156 1038.44 573.448 1111.6 571.01C1102.67 601.881 1184.32 551.521 1074.58 571.658C1114.55 554.387 1061.11 565.635 1047.2 562.694C1032.39 559.54 1048.67 549.692 1021.87 549.832C1021.87 549.838 1021.87 549.844 1021.87 549.849C1023.66 556.043 1025.46 562.237 1027.25 568.415C1085.11 563.168 1067.61 575.539 1020.47 579.152C1032.2 581.071 1043.92 582.987 1055.65 584.899ZM1110.37 550.759C1109.04 551.357 1116.96 564.88 1128.57 564.174C1135.99 562.48 1127.38 543.303 1110.37 550.759ZM1098.54 491.442C1098.34 496.274 1086.96 503.59 1108.72 506.511C1108.93 501.682 1120.31 494.366 1098.54 491.442ZM1090.78 737.92C1108.55 744.252 1114.18 725.876 1092.91 730.846C1091.91 731.117 1089.95 737.606 1090.78 737.92ZM1066.33 598.986C1044.26 604.898 1114.26 602.954 1096.09 598.073C1095.02 597.79 1067.33 598.713 1066.33 598.986ZM1807.25 814.209C1824.31 812.6 1813.8 830.88 1814.18 833.534C1798.18 833.461 1787.58 814.888 1807.25 814.209ZM1034.53 482.087C972.775 490.877 1043.79 504.87 1042.21 506.274C1040.61 507.673 1013.7 505.086 1012.97 505.4C1011.45 506.113 1013.51 521.275 1015.37 522.036C1016.83 522.58 1054.72 520.35 1066.61 523.633C1045.18 517.257 1059 489.764 1054.83 488.261C1051.49 487.102 1011.63 494.964 1034.53 482.103C1034.53 482.098 1034.53 482.092 1034.53 482.087ZM1033.91 509.734C1049.83 506.16 1051.68 516.802 1045.79 519.278C1032.61 524.803 1032.03 510.202 1033.91 509.734ZM1018.95 535.023C1015.37 536.173 1011.99 547.055 1029.65 548.21C1052.63 543.374 1027.28 532.388 1018.95 535.023ZM1019.61 655.963C1021.84 658.792 1008.14 666.302 1023.57 666.971C1021.36 664.161 1035.05 656.615 1019.61 655.963ZM1946.45 860.096C1958.9 854.146 1965.13 864.941 1959.22 868.609C1948.97 869.646 1945.38 860.682 1946.45 860.096ZM918.695 597.961C913.979 599.569 925.205 633.711 932.362 638.565C944.108 634.096 945.489 600.426 939.811 598.806C938.111 598.335 919.436 597.759 918.695 597.961ZM912.583 524.015C889.891 520.575 917.185 518.887 917.533 518.495C921.064 514.662 916.045 506.535 937.918 508.593C928.992 515.338 957.645 530.866 912.583 524.015ZM916.712 656.802C924.973 668.429 949.259 646.733 925.452 649.258C924.012 649.434 915.844 655.609 916.712 656.802ZM912.124 594.054C893.791 591.274 910.105 557.369 910.206 551.87C944.022 557.23 918.232 560.862 919.869 567.472C920.351 569.262 934.453 568.98 934.473 569.172C935.083 572.264 918.835 569.733 918.562 571.628C918.435 572.818 937.956 598.026 912.124 594.054ZM896.858 522.013C883.852 519.915 878.582 498.464 882.057 497.635C907.901 491.543 901.418 520.406 896.858 522.013ZM881.957 596.763C842.631 592.547 869.238 575.984 888.707 587.856C890.478 588.995 873.343 593.412 881.957 596.763ZM879.233 655.011C878.067 655.57 870.013 667.372 882.538 667.79C887.435 666.115 892.067 648.804 879.233 655.011ZM836.954 648.179C837.251 648.47 861.424 646.028 858.281 651.596C857.986 652.068 830.825 652.489 840.656 659.706C842.681 661.164 860.607 663.637 861.726 663.496C904.446 656.822 823.173 633.499 836.954 648.179ZM874.864 521.327C863.389 522.324 829.412 519.091 846.671 516.81C854.124 515.833 874.51 518.118 874.864 521.327ZM867.642 692.593C847.127 685.398 842.874 706.855 848.132 708.055C860.994 707.587 869.647 693.307 867.642 692.593ZM2106.08 857.76C2106.08 857.754 2106.08 857.748 2106.08 857.743C2101.95 864.257 2084.52 861.928 2084.01 862.257C2060 877.355 2098.43 870.568 2103.18 872.222C2113.43 875.702 2066.28 879.192 2086.42 884.721C2056.56 875.113 2069.58 885.089 2052.85 886.818C1984.59 894.014 2083.51 868.023 2068.66 863.166C2066.6 862.475 2045.31 870.648 2038.92 868.984C2018.19 863.542 2121.92 833.125 2106.08 857.76ZM843.697 514.838C823.577 511.831 843.406 491.206 859.938 496.964C862.589 497.901 873.023 519.276 843.697 514.838ZM769.263 1367.16C752.708 1360.47 731.007 1365.72 744.117 1369.56C750.643 1371.53 776.523 1370.15 769.263 1367.16ZM686.473 1404.45C689.451 1407.53 760.088 1425.09 749.674 1419.79C748.54 1419.19 696.418 1406.2 686.473 1404.45ZM754.399 1136.93C728.075 1141.01 776.297 1143.86 775.899 1139.55C775.766 1138.03 755.232 1136.8 754.399 1136.93ZM747.984 1304.31C746.241 1304.56 748.363 1311.05 759.37 1312.51C766.3 1311.29 759.939 1302.7 747.984 1304.31ZM747.66 1134.64C756.121 1138.65 791.376 1135.01 757.576 1128.6C760.232 1130.91 746.796 1134.23 747.66 1134.64ZM775.032 608.003C794.823 611.34 788.705 619.906 792.041 624.929C766.338 625.095 779.641 611.623 775.032 608.003ZM717.704 1397.41C734.85 1404.16 750.787 1399.8 727.149 1395.94C725.851 1395.81 716.967 1397.16 717.704 1397.41ZM755.682 949.129C770.805 953.712 791.992 942.572 764.916 944.6C763.811 944.708 754.841 948.875 755.682 949.129ZM767.032 896.565C761.736 899.294 762.769 911.629 777.926 907.53C780.255 906.925 781.05 897.409 767.032 896.565ZM2121.64 871.016C2147.8 867.019 2142.4 877.721 2137.91 879.443C2136.05 880.196 2087.61 876.178 2121.64 871.016ZM747.745 1174.17C750.834 1177.38 744.03 1184.68 757.747 1187.02C755.147 1183.16 775.335 1175.1 747.745 1174.17ZM720.605 1381.18C691.781 1379.38 693.593 1385.12 730.682 1390.67C729.329 1384.17 697.407 1385.4 720.605 1381.18ZM718.097 1113.39C715.76 1115.65 751.561 1119.81 753.27 1119.64C769.539 1118.06 732.225 1111.9 718.097 1113.39ZM734.67 1294.14C719.329 1293.02 725.664 1301.14 735.614 1300.95C738.954 1300.9 747.086 1295.04 734.67 1294.14ZM764.639 714.088C750.538 717.491 737.006 706.126 753.45 703.056C777.091 701.857 766.26 713.656 764.639 714.088ZM731.137 1047.37C708.37 1045.68 720.548 1058.52 739.716 1054.86C744.513 1053.94 738.75 1047.94 731.137 1047.37ZM709.896 930.689C736.708 940.06 757.606 907.076 723.301 914.409C720.857 915.012 707.638 929.833 709.896 930.689ZM729.378 876.289C726.321 877.554 649.717 873.561 679.509 869.15C683.373 868.565 703.484 872.91 708.144 872.499C710.801 872.264 722.083 860.303 720.317 859.63C718.31 858.93 693.716 858.646 690.986 857.909C687.938 857.04 709.821 850.458 710.218 846.387C710.924 838.824 690.503 837.285 690.459 836.662C690.393 834.891 705.026 832.482 705.148 828.8C705.69 810.479 689.288 782.441 733.064 769.849C715.268 781.887 733.35 794.342 738.581 807.399C696.032 802.083 770.791 827.432 722.017 812.386C732.529 818.663 738.961 872.206 729.378 876.273C729.378 876.278 729.378 876.283 729.378 876.289ZM663.985 1406.74C638.442 1400.96 644.042 1402.88 673.732 1409.02C675.711 1409.77 673.883 1409.85 671.329 1409.12C668.765 1408.43 665.426 1407.1 663.985 1406.74ZM609.342 1352.9C605.101 1350.91 554.859 1341.08 581.518 1339.28C581.519 1339.27 581.52 1339.27 581.521 1339.26C589.311 1338.7 601.241 1342.93 605.679 1343.35C607.485 1343.56 633.601 1341.93 636.793 1347.55C641.702 1356.05 599.142 1341.79 597.935 1345.58C597.813 1346.05 623.843 1358.01 629.904 1358.65C630.609 1358.74 625.217 1355.57 627.77 1355.65C637.368 1355.95 652.997 1359.37 653.78 1359.31C655.813 1359.05 631.023 1342.58 654.78 1344.7C662.438 1345.53 676.461 1368.22 672.42 1368.03C669.864 1368.05 626.217 1360.04 621.839 1359.73C619.653 1359.63 634.733 1369.66 630.558 1369.79C629.35 1369.83 628.063 1369.8 627.005 1369.75C640.693 1371.24 638.593 1377.13 623.41 1374.03C617.444 1372.82 621.666 1369.41 622.745 1369.42C623.2 1369.43 623.821 1369.49 624.252 1369.51C607.624 1367.51 611.06 1352.73 585.965 1351.56C573.322 1344.74 621.816 1358.6 609.342 1352.9ZM586.287 1325.34C590.805 1326.62 595.323 1327.9 599.84 1329.19C590.019 1318.66 613.891 1311.81 615.434 1300.91C615.855 1298.17 587.163 1296.91 595.432 1294.52C602.061 1292.59 628.722 1293.41 634.309 1295.9C635.705 1296.52 617.736 1299.85 619.026 1303.01C622.83 1312.5 647.349 1314.12 647.921 1314.74C648.521 1315.41 630.655 1318.11 630.946 1321.08C631.724 1328.62 645.995 1334.47 625.043 1340.61C610.056 1332.49 574.991 1329.7 586.287 1325.34ZM664.818 992.804C649.457 991.571 663.494 985.014 661.371 982.278C676.773 983.494 662.699 990.044 664.818 992.804ZM399.506 1039.17C404.572 1045.23 410.545 1042.01 417.277 1030.86C424.098 1019.83 431.724 998.704 445.937 959.372C463.137 916.014 481.239 849.371 560.12 727.051C596.987 671.372 631.831 631.359 644.606 615.004C645.972 612.895 643.842 614.436 638.232 619.798C635.503 622.399 631.584 626.333 627.611 630.41C624.591 633.413 621.04 637.046 617.032 641.283C601.031 658.153 577.534 685.129 553.685 717.368C532.4 744.242 486.349 821.056 468.492 859.848C448.322 900.68 432.613 941.621 424.863 962.395C407.346 1010.55 402.127 1029.47 399.506 1039.17ZM2265.55 1213.34C2272.93 1216.56 2289.26 1198.59 2269.81 1200.82C2263.59 1201.57 2264.59 1212.93 2265.55 1213.34ZM620.093 1257.72C619.337 1257.24 625.42 1251.7 626.717 1251.61C653.792 1249.74 636.769 1268.26 620.093 1257.72ZM2308.08 1341.41C2290.84 1332.96 2285.8 1362.65 2306.23 1352.2C2307.22 1351.65 2308.91 1341.79 2308.08 1341.41ZM2313.81 1358.14C2313.11 1360.08 2321.95 1367.46 2314.24 1368.09C2301.86 1369.07 2292.69 1361.12 2313.81 1358.14ZM622.89 1105.69C594.408 1104.76 616.619 1095.37 613.273 1091.38C641.777 1092.29 619.542 1101.7 622.89 1105.69ZM597.38 1172.29C578.102 1125.48 638.15 1139.59 611.031 1175.96C592.799 1174.73 598.59 1175.24 597.38 1172.29ZM604.665 1114.46C622.769 1117.28 617.034 1122.08 615.346 1125.48C602.728 1124.02 607.777 1117.17 604.665 1114.46ZM2299.11 1199.07C2301.6 1193.77 2303.11 1185.9 2303.1 1171.89C2301.55 1158.45 2308.09 1144.6 2276.42 1015.66C2271.8 998.551 2266.02 978.746 2257.81 954.637C2255.64 948.288 2253.93 943.367 2250.79 934.728C2242.7 912.636 2232.65 887.271 2218.62 857.03C2189.45 796.837 2150.19 715.263 2048.22 602.327C1950.26 494.505 1751.91 334.213 1459.45 291.787C1172.02 242.428 875.892 367.515 771.203 444.158C600.624 559.836 538.466 654.795 492.31 719.167C408.955 847.345 395.956 902.475 382.08 935.993C374.893 956.188 370.193 971.382 366.529 983.904C352.313 1034.27 353.005 1040.96 351.852 1050.9C351.243 1059.65 352.332 1062.39 353.708 1064.17C355.109 1065.88 356.943 1066.11 358.819 1066.03C362.594 1065.78 366.325 1065.33 368.399 1067.02C368.627 1067.18 368.674 1067.72 368.643 1068.14C368.615 1068.54 368.533 1068.7 368.655 1067.39C368.803 1065.99 369 1063.67 370.524 1055.31C372.589 1045.77 372.454 1039.43 386.579 989.782C390.219 977.443 394.854 962.455 401.915 942.535C416.153 908.103 428.612 854.21 512.051 726.871C558.161 663.114 620.715 568.707 791.007 455.718C911.204 371.34 1201.03 261.575 1480.23 315.671C1762.4 364.143 1947.1 519.642 2039.99 623.309C2136.24 731.956 2173.71 810.095 2201.59 868.031C2215.01 897.13 2224.67 921.564 2232.47 942.865C2234.86 949.367 2237 955.396 2239.02 961.247C2247.07 984.573 2252.8 1003.74 2257.41 1020.29C2289.17 1144.55 2284.85 1159.87 2288.67 1171.71C2293.37 1196.91 2296.1 1202.19 2299.11 1199.07ZM596.088 1252.05C568.39 1250.92 580.702 1238.39 586.914 1237.81C611.91 1235.56 590.08 1250.51 596.088 1252.05ZM602.499 1039.47C580.978 1035.78 592.508 1029.67 593.05 1025.19C611.458 1028.3 603.107 1035.74 602.499 1039.47ZM583.635 1070.36C582.82 1070.04 585.15 1063.97 586.163 1063.76C607.624 1059.98 601.149 1077.11 583.635 1070.36ZM2313 831.673C2313.72 831.905 2312.77 837.07 2311.98 837.347C2291.61 843.737 2294.53 827.845 2313 831.673Z" fill="#4F9FA6"/>
</g>
<defs>
<filter id="filter0_f_0_163" x="0" y="-1.52588e-05" width="2779.42" height="2775.06" filterUnits="userSpaceOnUse" color-interpolation-filters="sRGB">
<feFlood flood-opacity="0" result="BackgroundImageFix"/>
<feBlend mode="normal" in="SourceGraphic" in2="BackgroundImageFix" result="shape"/>
<feGaussianBlur stdDeviation="140.288" result="effect1_foregroundBlur_0_163"/>
</filter>
</defs>
</svg>
